<svg width="38" height="39" viewBox="0 0 38 39" fill="none" xmlns="http://www.w3.org/2000/svg">
<g clip-path="url(#clip0_25_3433)">
<path d="M28.3286 12.8591H26.7548V9.71147C26.7548 5.36775 23.2295 1.84241 18.8857 1.84241C14.542 1.84241 11.0167 5.36775 11.0167 9.71147V12.8591H9.44285C7.71166 12.8591 6.29523 14.2755 6.29523 16.0067V31.7449C6.29523 33.476 7.71166 34.8925 9.44285 34.8925H28.3286C30.0598 34.8925 31.4762 33.476 31.4762 31.7449V16.0067C31.4762 14.2755 30.0598 12.8591 28.3286 12.8591ZM18.8857 27.0234C17.1545 27.0234 15.7381 25.607 15.7381 23.8758C15.7381 22.1446 17.1545 20.7282 18.8857 20.7282C20.6169 20.7282 22.0334 22.1446 22.0334 23.8758C22.0334 25.607 20.6169 27.0234 18.8857 27.0234ZM14.1643 12.8591V9.71147C14.1643 7.09894 16.2732 4.99003 18.8857 4.99003C21.4983 4.99003 23.6072 7.09894 23.6072 9.71147V12.8591H14.1643Z" fill="#222831"/>
</g>
<defs>
<clipPath id="clip0_25_3433">
<rect width="37.7715" height="37.7715" fill="white" transform="translate(0 0.268616)"/>
</clipPath>
</defs>
</svg>
