<svg width="49" height="50" viewBox="0 0 49 50" fill="none" xmlns="http://www.w3.org/2000/svg">
<path d="M14.0403 16.516C13.3806 17.1757 13.3806 18.2245 14.0403 18.8842L17.2543 22.0982H1.69161C0.761235 22.0982 1.59799e-05 22.8595 1.59799e-05 23.7898C1.59799e-05 24.7202 0.761235 25.4814 1.69161 25.4814H17.2543L14.0403 28.6955C13.3806 29.3552 13.3806 30.404 14.0403 31.0637C14.7 31.7234 15.7488 31.7234 16.4085 31.0637L22.4814 24.9909C23.1411 24.3311 23.1411 23.2654 22.4814 22.6057L16.4085 16.516C15.7488 15.8562 14.7 15.8562 14.0403 16.516ZM30.4488 35.631H18.6076C17.6772 35.631 16.916 36.3922 16.916 37.3226C16.916 38.253 17.6772 39.0142 18.6076 39.0142H30.4488C32.3095 39.0142 33.832 37.4918 33.832 35.631V11.9486C33.832 10.0879 32.3095 8.56545 30.4488 8.56545H18.6076C17.6772 8.56545 16.916 9.32667 16.916 10.257C16.916 11.1874 17.6772 11.9486 18.6076 11.9486H30.4488V35.631Z" fill="#222831"/>
</svg>
