<svg width="654" height="539" viewBox="0 0 654 539" fill="none" xmlns="http://www.w3.org/2000/svg">
<g clip-path="url(#clip0_25_3253)">
<path d="M654 412.227H0V412.497H654V412.227Z" fill="#E6E6E6"/>
<path d="M163.265 428.537H119.944V428.807H163.265V428.537Z" fill="#E6E6E6"/>
<path d="M106.236 428.537H81.1354V428.807H106.236V428.537Z" fill="#E6E6E6"/>
<path d="M275.399 432.504H250.299V432.774H275.399V432.504Z" fill="#E6E6E6"/>
<path d="M406.278 438.52H349.785V438.789H406.278V438.52Z" fill="#E6E6E6"/>
<path d="M338.144 438.52H329.865V438.789H338.144V438.52Z" fill="#E6E6E6"/>
<path d="M592.982 432.504H470.448V432.774H592.982V432.504Z" fill="#E6E6E6"/>
<path d="M309.996 364.148H57.4344C55.4559 364.146 53.5595 363.496 52.1617 362.342C50.7639 361.188 49.9788 359.624 49.9788 357.993V65.3915C49.996 63.7702 50.7887 62.22 52.1847 61.0775C53.5807 59.9351 55.4672 59.2928 57.4344 59.29H309.996C311.977 59.29 313.877 59.9385 315.277 61.0928C316.678 62.2472 317.465 63.8128 317.465 65.4454V357.993C317.465 359.626 316.678 361.191 315.277 362.346C313.877 363.5 311.977 364.148 309.996 364.148ZM57.4344 59.5056C55.5426 59.5084 53.7294 60.1298 52.3929 61.2333C51.0564 62.3368 50.3058 63.8323 50.3058 65.3915V357.993C50.3058 359.552 51.0564 361.048 52.3929 362.151C53.7294 363.255 55.5426 363.876 57.4344 363.879H309.996C311.889 363.876 313.704 363.255 315.042 362.152C316.381 361.049 317.134 359.553 317.138 357.993V65.3915C317.134 63.8313 316.381 62.3359 315.042 61.2327C313.704 60.1295 311.889 59.5084 309.996 59.5056H57.4344Z" fill="#E6E6E6"/>
<path d="M592.93 364.148H340.355C338.375 364.146 336.477 363.496 335.077 362.342C333.678 361.189 332.89 359.625 332.886 357.993V65.3915C332.907 63.7692 333.702 62.219 335.1 61.0769C336.498 59.9347 338.386 59.2927 340.355 59.29H592.93C594.895 59.2956 596.778 59.9392 598.171 61.0813C599.564 62.2234 600.355 63.772 600.372 65.3915V357.993C600.372 359.622 599.589 361.184 598.194 362.338C596.799 363.492 594.906 364.143 592.93 364.148ZM340.355 59.5056C338.462 59.5084 336.647 60.1295 335.309 61.2327C333.97 62.3359 333.217 63.8313 333.213 65.3915V357.993C333.217 359.553 333.97 361.049 335.309 362.152C336.647 363.255 338.462 363.876 340.355 363.879H592.93C594.823 363.876 596.637 363.255 597.976 362.152C599.314 361.049 600.068 359.553 600.071 357.993V65.3915C600.068 63.8313 599.314 62.3359 597.976 61.2327C596.637 60.1295 594.823 59.5084 592.93 59.5056H340.355Z" fill="#E6E6E6"/>
<path d="M349.759 320.144H320.996V414.178H349.759V320.144Z" fill="#E0E0E0"/>
<path d="M344.292 414.178H349.759V401.372H338.563L344.292 414.178Z" fill="#FAFAFA"/>
<path d="M223.72 320.144H194.957V414.178H223.72V320.144Z" fill="#E0E0E0"/>
<path d="M349.759 320.144H218.959V406.32H349.759V320.144Z" fill="#FAFAFA"/>
<path d="M345.011 324.381V347.181H223.668V324.381H344.972M345.482 323.961H223.197V347.59H345.521V323.961H345.482Z" fill="#E0E0E0"/>
<path d="M224.414 414.178H218.959V401.372H230.143L224.414 414.178Z" fill="#FAFAFA"/>
<path d="M281.469 335.775C281.469 336.247 281.638 336.707 281.956 337.099C282.273 337.491 282.725 337.796 283.253 337.976C283.781 338.157 284.362 338.204 284.923 338.112C285.484 338.02 285.999 337.793 286.403 337.46C286.808 337.127 287.083 336.702 287.194 336.24C287.306 335.778 287.249 335.299 287.03 334.864C286.811 334.428 286.441 334.056 285.965 333.795C285.49 333.533 284.931 333.393 284.359 333.393C283.593 333.393 282.857 333.644 282.315 334.091C281.773 334.538 281.469 335.144 281.469 335.775Z" fill="#E6E6E6"/>
<path d="M345.011 351.827V374.627H223.668V351.827H344.972M345.482 351.417H223.197V375.047H345.521V351.428L345.482 351.417Z" fill="#E0E0E0"/>
<path d="M281.469 363.286C281.469 363.757 281.638 364.218 281.956 364.61C282.273 365.001 282.725 365.307 283.253 365.487C283.781 365.667 284.362 365.715 284.923 365.623C285.484 365.531 285.999 365.304 286.403 364.971C286.808 364.637 287.083 364.213 287.194 363.751C287.306 363.289 287.249 362.81 287.03 362.374C286.811 361.939 286.441 361.567 285.965 361.305C285.49 361.043 284.931 360.904 284.359 360.904C283.593 360.904 282.857 361.155 282.315 361.601C281.773 362.048 281.469 362.654 281.469 363.286Z" fill="#E6E6E6"/>
<path d="M345.011 379.284V402.094H223.668V379.284H344.972M345.482 378.863H223.197V402.504H345.521V378.863H345.482Z" fill="#E0E0E0"/>
<path d="M281.469 390.689C281.471 391.16 281.643 391.619 281.962 392.009C282.281 392.4 282.734 392.703 283.262 392.882C283.79 393.061 284.371 393.106 284.931 393.013C285.491 392.92 286.005 392.692 286.408 392.359C286.811 392.025 287.085 391.601 287.195 391.139C287.306 390.677 287.248 390.199 287.029 389.764C286.809 389.329 286.439 388.958 285.964 388.696C285.489 388.435 284.93 388.296 284.359 388.296C283.979 388.296 283.602 388.358 283.25 388.478C282.898 388.598 282.579 388.775 282.311 388.997C282.042 389.22 281.829 389.484 281.685 389.774C281.54 390.064 281.467 390.375 281.469 390.689Z" fill="#E6E6E6"/>
<path d="M206.154 265.533H177.391V414.189H206.154V265.533Z" fill="#E0E0E0"/>
<path d="M200.686 414.178H206.154V401.372H194.97L200.686 414.178Z" fill="#FAFAFA"/>
<path d="M98.6625 265.533H69.8996V414.189H98.6625V265.533Z" fill="#E0E0E0"/>
<path d="M206.154 265.533H93.8883V406.331H206.154V265.533Z" fill="#FAFAFA"/>
<path d="M201.314 269.5V301.377H98.7279V269.5H201.314ZM201.916 269.015H98.1001V301.84H201.89V269.026L201.916 269.015Z" fill="#E0E0E0"/>
<path d="M201.314 305.268V389.816H152.447V305.268H201.314ZM201.916 304.772H151.859V390.311H201.916V304.772Z" fill="#E0E0E0"/>
<path d="M147.595 305.268V389.816H98.7279V305.268H147.595ZM148.183 304.772H98.1001V390.311H148.157V304.772H148.183Z" fill="#E0E0E0"/>
<path d="M99.3558 414.178H93.8883V401.372H105.085L99.3558 414.178Z" fill="#FAFAFA"/>
<path d="M147.124 285.454C147.121 285.928 147.289 286.392 147.607 286.787C147.924 287.182 148.377 287.49 148.907 287.673C149.438 287.856 150.022 287.905 150.586 287.814C151.15 287.723 151.669 287.496 152.076 287.161C152.484 286.827 152.762 286.401 152.875 285.936C152.988 285.472 152.931 284.99 152.712 284.552C152.492 284.114 152.12 283.74 151.642 283.476C151.164 283.213 150.603 283.072 150.028 283.072C149.26 283.072 148.523 283.323 147.979 283.769C147.435 284.216 147.127 284.822 147.124 285.454Z" fill="#E6E6E6"/>
<path d="M157.483 345.531C157.483 346.005 157.654 346.468 157.973 346.862C158.293 347.256 158.747 347.563 159.279 347.743C159.81 347.924 160.395 347.971 160.958 347.878C161.522 347.784 162.039 347.556 162.445 347.22C162.85 346.884 163.126 346.457 163.236 345.992C163.347 345.527 163.288 345.045 163.066 344.608C162.844 344.171 162.47 343.798 161.991 343.536C161.511 343.275 160.949 343.136 160.374 343.138C159.993 343.138 159.616 343.2 159.265 343.321C158.913 343.441 158.594 343.617 158.325 343.84C158.057 344.062 157.844 344.326 157.699 344.616C157.555 344.907 157.481 345.218 157.483 345.531Z" fill="#E6E6E6"/>
<path d="M136.778 345.531C136.78 346.002 136.952 346.462 137.271 346.852C137.59 347.242 138.043 347.546 138.571 347.725C139.1 347.903 139.68 347.949 140.24 347.856C140.8 347.763 141.314 347.535 141.717 347.201C142.12 346.868 142.394 346.443 142.504 345.981C142.615 345.52 142.557 345.041 142.338 344.606C142.118 344.172 141.748 343.8 141.273 343.539C140.798 343.278 140.239 343.138 139.668 343.138C139.288 343.138 138.911 343.2 138.559 343.321C138.207 343.441 137.888 343.617 137.62 343.84C137.351 344.062 137.138 344.326 136.994 344.616C136.849 344.907 136.776 345.218 136.778 345.531Z" fill="#E6E6E6"/>
<path d="M133.508 224.084H121.383C122.5 228.931 123.204 233.838 123.488 238.766C123.488 244.156 114.254 265.533 127.412 265.533C140.571 265.533 131.336 244.21 131.336 238.766C131.643 233.836 132.368 228.93 133.508 224.084Z" fill="#E0E0E0"/>
<path d="M87.3743 245.946V252.414C87.3881 255.881 89.0655 259.203 92.0404 261.655C95.0154 264.107 99.0463 265.489 103.253 265.501H111.101C115.309 265.489 119.34 264.107 122.314 261.655C125.289 259.203 126.967 255.881 126.981 252.414V245.946H87.3743Z" fill="#F5F5F5"/>
<path d="M255.936 306.432C255.936 313.978 266.178 320.144 278.696 320.144H289.997C302.514 320.144 312.756 313.978 312.756 306.432H255.936Z" fill="#E0E0E0"/>
<path d="M555.39 295.372C548.536 299.986 539.066 308.427 530.407 320.306C524.626 328.219 521.147 336.476 519.616 347.45C519.616 335.053 519.708 321.74 519.76 309.17C521.5 305.936 525.476 298.477 528.327 292.591C537.837 272.939 541.407 268.099 549.949 251.152C561.368 228.514 573.061 201.715 569.713 203.861C562.885 208.226 536.725 248.598 533.9 254.376C526.198 269.796 521.438 286.105 519.786 302.724C519.786 290.866 519.891 280.086 519.943 271.721C520.126 244.437 520.689 235.629 520.963 232.913C522.023 231.533 523.265 229.927 523.998 229.064C530.146 221.734 532.513 215.503 538.294 204.572C546.509 189.103 553.572 161.625 551.505 163.004C542.899 168.782 536.123 181.179 527.203 196.994C518.282 212.808 520.833 221.896 519.067 235.392C518.701 238.044 518.413 248.048 518.204 261.9C515.901 247.132 511.559 237.408 503.645 228.568C493.914 217.691 484.496 210.35 477.59 206.512C470.684 202.675 489.519 229.388 498.518 241.008C506.536 251.4 513.926 260.553 518.138 269.575C517.916 288.365 517.811 312.146 517.811 334.255C515.745 324.187 512.37 313.331 507.87 304.934C502.455 294.844 494.136 279.364 487.505 274.114C485.922 272.853 494.437 302.961 499.905 310.96C505.372 318.959 509.388 326.515 512.828 331.054C513.626 332.132 516.294 336.196 517.811 338.546C517.811 365.571 517.994 389.417 518.282 397.534H519.695C519.603 395.443 519.577 381.687 519.616 363.491C523.03 353.616 530.826 342.34 537.261 332.056C544.272 320.921 562.244 290.791 555.39 295.372Z" fill="#E0E0E0"/>
<path d="M539.472 414.178H498.479L495.379 381.062H542.572L539.472 414.178Z" fill="#F0F0F0"/>
<path d="M545.619 384.922H492.318L490.801 373.743H547.15L545.619 384.922Z" fill="#F5F5F5"/>
<path d="M162.532 81.389H89.2188V147.74H162.532V81.389Z" fill="#E0E0E0"/>
<path d="M170.472 81.389H94.7384V147.74H170.472V81.389Z" fill="#F5F5F5"/>
<path d="M164.128 142.512V86.6173H101.082V142.512H164.128Z" fill="white"/>
<path d="M148.837 128.95V100.157H116.36V128.95H148.837Z" fill="#F5F5F5"/>
<path d="M536.345 89.1183H468.238V150.758H536.345V89.1183Z" fill="#E0E0E0"/>
<path d="M543.723 89.1183H473.378V150.758H543.723V89.1183Z" fill="#F5F5F5"/>
<path d="M537.837 145.897V93.98H479.278V145.897H537.837Z" fill="white"/>
<path d="M508.55 134.998C518.642 134.998 526.823 128.256 526.823 119.938C526.823 111.621 518.642 104.879 508.55 104.879C498.459 104.879 490.278 111.621 490.278 119.938C490.278 128.256 498.459 134.998 508.55 134.998Z" fill="#F5F5F5"/>
<path d="M238.697 120.952H184.31V170.173H238.697V120.952Z" fill="#E0E0E0"/>
<path d="M244.583 120.952H188.404V170.173H244.583V120.952Z" fill="#F5F5F5"/>
<path d="M239.874 166.292V124.832H193.113V166.292H239.874Z" fill="white"/>
<path d="M216.5 135.073L203.708 153.335H229.292L216.5 135.073Z" fill="#F5F5F5"/>
<path d="M327 460.91C467.064 460.91 580.608 455.446 580.608 448.707C580.608 441.967 467.064 436.504 327 436.504C186.936 436.504 73.392 441.967 73.392 448.707C73.392 455.446 186.936 460.91 327 460.91Z" fill="#F5F5F5"/>
<path d="M456.819 176.178L443.844 171.866C443.844 171.866 426.722 197.597 421.817 198.902C415.146 200.67 401.334 205.585 393.146 206.448C392.034 207.526 390.216 210.878 390.386 212.097C401.386 215.126 425.558 211.105 430.738 207.935C442.523 200.745 456.819 176.178 456.819 176.178Z" fill="#E58A7B"/>
<path d="M460.808 170.324C463.228 177.687 450.122 192.498 450.122 192.498L432.948 184.564C432.948 184.564 436.166 178.474 440.09 172.275C446.381 162.261 458.049 161.926 460.808 170.324Z" fill="#7A96D4"/>
<path opacity="0.2" d="M460.808 170.324C463.228 177.687 450.122 192.498 450.122 192.498L432.948 184.564C432.948 184.564 436.166 178.474 440.09 172.275C446.381 162.261 458.049 161.926 460.808 170.324Z" fill="black"/>
<path opacity="0.2" d="M439.763 187.734L446.525 190.86L447.715 173.752C443.778 176.242 441.005 183.745 439.763 187.734Z" fill="black"/>
<path d="M449.507 164.783C449.507 164.783 436.14 189.297 443.935 234.939H496.608C497.446 228.277 494.673 195.765 504.705 164.373C498.927 163.443 493.08 162.827 487.204 162.53C479.75 162.174 472.278 162.174 464.824 162.53C459.657 162.962 454.537 163.716 449.507 164.783Z" fill="#7A96D4"/>
<path opacity="0.2" d="M449.507 164.783C449.507 164.783 436.14 189.297 443.935 234.939H496.608C497.446 228.277 494.673 195.765 504.705 164.373C498.927 163.443 493.08 162.827 487.204 162.53C479.75 162.174 472.278 162.174 464.824 162.53C459.657 162.962 454.537 163.716 449.507 164.783Z" fill="black"/>
<g style="mix-blend-mode:multiply">
<path d="M437.291 449.677C437.212 450.841 457.185 451.779 481.893 451.779C506.602 451.779 526.719 450.841 526.797 449.677C526.876 448.513 506.915 447.586 482.194 447.586C457.473 447.586 437.382 448.523 437.291 449.677Z" fill="#E8ECF1"/>
</g>
<path d="M472.45 419.086L463.108 422.067L471.156 439.2L480.498 436.22L472.45 419.086Z" fill="#E58A7B"/>
<path d="M514.109 441.387H504.26L500.65 422.598H510.499L514.109 441.387Z" fill="#E58A7B"/>
<path d="M503.58 440.449H514.646C514.838 440.45 515.023 440.506 515.169 440.609C515.315 440.712 515.413 440.854 515.444 441.01L516.869 448.222C516.899 448.403 516.882 448.587 516.818 448.762C516.754 448.936 516.645 449.098 516.498 449.235C516.352 449.372 516.172 449.481 515.969 449.556C515.767 449.63 515.547 449.668 515.326 449.666C511.467 449.612 509.61 449.418 504.744 449.418C501.749 449.418 495.588 449.677 491.429 449.677C487.269 449.677 486.995 446.314 488.708 446.001C496.399 444.632 499.381 442.767 501.945 440.956C502.397 440.629 502.978 440.449 503.58 440.449Z" fill="#263238"/>
<path d="M470.88 437.668L481.344 435.146C481.531 435.102 481.73 435.113 481.908 435.175C482.087 435.238 482.234 435.349 482.325 435.49L486.249 441.958C486.34 442.123 486.387 442.301 486.386 442.482C486.384 442.662 486.335 442.84 486.242 443.003C486.148 443.167 486.013 443.311 485.845 443.427C485.676 443.542 485.48 443.626 485.268 443.672C481.462 444.535 478.911 445.063 474.15 446.206C470.867 446.993 467.519 448.276 464.275 449.127C462.025 449.72 456.741 449.742 454.007 449.742C449.965 449.742 449.063 446.227 450.802 446.066C455.184 445.667 455.773 445.85 458.192 444.848C462.152 443.421 465.74 441.379 468.761 438.832C469.331 438.297 470.062 437.896 470.88 437.668Z" fill="#263238"/>
<path d="M394.794 206.405L383.963 202.664L379.503 212.56C383.942 213.117 388.458 213.117 392.897 212.56L394.794 206.405Z" fill="#E58A7B"/>
<path d="M375.906 202.405L375.618 208.981L379.503 212.539L383.963 202.642L375.906 202.405Z" fill="#E58A7B"/>
<path d="M473.732 420.541L464.361 423.523L468.511 432.383L477.882 429.401L473.732 420.541Z" fill="#CF6F64"/>
<path d="M510.499 422.598H500.65L502.521 432.289H512.37L510.499 422.598Z" fill="#CF6F64"/>
<path opacity="0.2" d="M442.261 222.596C442.457 224.547 442.68 226.542 442.967 228.59L482.129 218.112C488.245 216.618 493.56 213.45 497.197 209.132C497.354 206.254 497.55 203.225 497.851 200.066C497.982 198.535 498.139 196.961 498.309 195.366C498.479 193.771 498.714 192.003 498.963 190.299L442.261 222.596Z" fill="black"/>
<path d="M455.053 187.238L453.745 187.108C454.517 181.718 459.396 177.471 464.536 177.579V178.657C460.037 178.581 455.747 182.408 455.053 187.238Z" fill="white"/>
<path d="M462.025 197.188H461.803V196.11C466.302 196.25 470.527 192.38 471.22 187.561L472.528 187.691C471.835 192.962 467.113 197.188 462.025 197.188Z" fill="white"/>
<path d="M486.471 141.757C484.627 147.697 482.456 158.574 487.204 162.53C487.204 162.53 483.882 168.556 470.501 168.556C458.271 168.556 464.824 162.53 464.824 162.53C472.96 160.956 473.104 156.062 472.031 151.427L486.471 141.757Z" fill="#E58A7B"/>
<path d="M480.585 145.702L472.044 151.427C472.309 152.492 472.462 153.574 472.502 154.661C475 156.709 480.01 151.524 480.52 148.872C480.779 147.828 480.801 146.753 480.585 145.702Z" fill="#CF6F64"/>
<path d="M457.355 141.682C457.95 142.53 458.75 143.269 459.707 143.852C460.663 144.434 461.755 144.848 462.914 145.066C466.054 145.638 467.623 143.255 466.76 140.862C465.988 138.706 463.411 135.806 460.22 136.302C459.536 136.418 458.896 136.668 458.354 137.03C457.811 137.391 457.381 137.855 457.101 138.382C456.82 138.909 456.697 139.483 456.741 140.057C456.786 140.631 456.996 141.188 457.355 141.682Z" fill="#CF6F64"/>
<path d="M462.548 122.676C457.656 124.52 455.93 140.539 462.077 142.91C468.225 145.282 471.809 119.173 462.548 122.676Z" fill="#263238"/>
<path d="M487.963 132.82C486.785 140.862 486.655 145.595 481.423 149.713C479.801 151.079 477.753 152.05 475.505 152.518C473.256 152.985 470.895 152.932 468.681 152.363C466.467 151.794 464.487 150.732 462.959 149.294C461.431 147.856 460.416 146.099 460.024 144.215C458.441 136.992 460.625 125.059 470.409 121.857C472.465 121.11 474.726 120.829 476.957 121.045C479.189 121.26 481.31 121.963 483.1 123.082C484.891 124.2 486.286 125.693 487.141 127.405C487.996 129.118 488.28 130.987 487.963 132.82Z" fill="#E58A7B"/>
<path d="M471.887 126.838C479.134 125.318 484.457 124.283 482.547 129.252C480.023 135.893 476.988 142.318 481.056 142.609C483.541 142.792 494.529 138.954 493.129 135.063C491.913 131.678 497.053 130.751 497.969 129.037C501.356 122.827 491.664 123.647 493.391 119.874C495.117 116.101 485.543 110.021 480.311 113.05C471.796 117.944 457.185 117.869 464.863 109.816C470.37 104.07 460.547 105.245 460.547 105.245C460.547 105.245 466.485 108.145 456.492 112.629C445.923 117.416 455.616 130.276 471.887 126.838Z" fill="#263238"/>
<path d="M491.808 141.682C490.378 143.388 488.228 144.594 485.778 145.066C482.547 145.638 481.305 143.255 482.521 140.862C483.607 138.706 486.589 135.806 489.676 136.302C492.763 136.798 493.469 139.569 491.808 141.682Z" fill="#E58A7B"/>
<path d="M443.935 234.939C443.935 234.939 435.093 300.158 434.4 324.909C433.694 350.652 464.366 430.974 464.366 430.974L480.062 425.584C480.062 425.584 461.75 352.193 464.366 326.914C467.139 299.35 478.597 234.982 478.597 234.982L443.935 234.939Z" fill="#7A96D4"/>
<path opacity="0.2" d="M465.91 252.845C458.86 264.897 463.608 288.732 467.427 302.853C468.879 292.882 470.605 282.059 472.24 272.044C472.083 256.65 470.632 244.76 465.91 252.845Z" fill="black"/>
<path d="M479.369 421.315C479.447 421.315 481.226 425.433 481.226 425.433L463.124 431.707L460.272 427.33L479.369 421.315Z" fill="#7A96D4"/>
<path d="M462.627 234.939C462.627 234.939 469.389 296.967 473.862 320.198C478.78 345.65 498.06 430.413 498.06 430.413H516.098C516.098 430.413 505.294 347.709 503.253 322.505C501.029 295.167 496.608 234.939 496.608 234.939H462.627Z" fill="#7A96D4"/>
<path d="M516.372 426.543C516.451 426.543 516.974 430.693 516.974 430.693H497.145L495.732 425.929L516.372 426.543Z" fill="#7A96D4"/>
<path opacity="0.2" d="M509.466 421.627C509.425 421.628 509.385 421.616 509.354 421.594C509.323 421.572 509.302 421.542 509.296 421.509C509.191 420.754 499.447 346.049 497.616 323.411C495.627 298.854 491.625 244.383 491.586 243.833C491.584 243.815 491.587 243.797 491.594 243.78C491.601 243.763 491.612 243.747 491.627 243.734C491.642 243.721 491.659 243.711 491.679 243.703C491.699 243.696 491.721 243.693 491.743 243.693C491.786 243.693 491.827 243.706 491.859 243.73C491.89 243.754 491.909 243.787 491.913 243.822C491.913 244.372 495.954 298.8 497.943 323.4C499.774 346.038 509.518 420.69 509.61 421.498C509.614 421.516 509.613 421.534 509.607 421.552C509.602 421.569 509.592 421.586 509.579 421.6C509.565 421.614 509.548 421.626 509.529 421.634C509.509 421.643 509.488 421.648 509.466 421.649V421.627Z" fill="black"/>
<path d="M472.999 135.063C472.999 135.72 472.502 136.248 471.979 136.248C471.456 136.248 471.076 135.72 471.129 135.063C471.181 134.405 471.626 133.877 472.149 133.877C472.672 133.877 473.051 134.416 472.999 135.063Z" fill="#263238"/>
<path d="M464.026 135.063C464.026 135.72 463.516 136.248 463.006 136.248C462.496 136.248 462.103 135.72 462.143 135.063C462.182 134.405 462.653 133.877 463.176 133.877C463.699 133.877 464.078 134.416 464.026 135.063Z" fill="#263238"/>
<path d="M466.851 135.397C465.76 137.405 464.352 139.286 462.666 140.992C463.974 142.07 466.42 141.574 466.42 141.574L466.851 135.397Z" fill="#DF5753"/>
<path d="M467.087 144.323C467.057 144.323 467.027 144.318 466.999 144.308C466.971 144.298 466.946 144.283 466.925 144.265C466.904 144.247 466.888 144.226 466.878 144.202C466.867 144.179 466.863 144.154 466.864 144.129C466.868 144.076 466.896 144.027 466.942 143.991C466.988 143.955 467.049 143.934 467.113 143.935C468.113 143.94 469.103 143.761 470.008 143.41C470.913 143.06 471.712 142.546 472.345 141.908C472.39 141.875 472.448 141.857 472.509 141.857C472.569 141.857 472.627 141.875 472.672 141.908C472.714 141.944 472.738 141.992 472.738 142.043C472.738 142.093 472.714 142.141 472.672 142.177C471.994 142.856 471.141 143.401 470.175 143.772C469.208 144.143 468.153 144.331 467.087 144.323Z" fill="#263238"/>
<path d="M474.595 133.079C474.532 133.106 474.463 133.119 474.392 133.119C474.322 133.119 474.252 133.106 474.189 133.079C473.7 132.818 473.143 132.656 472.564 132.606C471.984 132.555 471.399 132.618 470.854 132.788C470.801 132.81 470.743 132.823 470.684 132.826C470.624 132.829 470.565 132.822 470.509 132.806C470.453 132.79 470.401 132.765 470.357 132.732C470.313 132.7 470.277 132.66 470.252 132.616C470.204 132.52 470.202 132.412 470.249 132.315C470.295 132.219 470.386 132.141 470.501 132.098C471.185 131.868 471.926 131.777 472.661 131.833C473.397 131.89 474.105 132.091 474.726 132.422C474.776 132.45 474.819 132.486 474.852 132.527C474.885 132.569 474.907 132.616 474.918 132.665C474.929 132.714 474.928 132.765 474.915 132.814C474.903 132.863 474.878 132.909 474.843 132.95C474.777 133.012 474.691 133.056 474.595 133.079Z" fill="#263238"/>
<path d="M460.56 130.923C460.49 130.909 460.427 130.879 460.377 130.837C460.333 130.802 460.299 130.76 460.275 130.714C460.252 130.667 460.239 130.618 460.239 130.567C460.239 130.517 460.252 130.467 460.275 130.421C460.299 130.375 460.333 130.333 460.377 130.298C460.878 129.834 461.502 129.473 462.201 129.241C462.9 129.009 463.654 128.913 464.405 128.961C464.466 128.969 464.523 128.987 464.575 129.013C464.626 129.04 464.671 129.075 464.705 129.117C464.739 129.158 464.763 129.205 464.774 129.254C464.786 129.303 464.785 129.354 464.772 129.403C464.744 129.503 464.672 129.591 464.571 129.65C464.47 129.71 464.346 129.737 464.222 129.727C463.628 129.696 463.033 129.777 462.482 129.963C461.932 130.15 461.44 130.438 461.044 130.805C460.984 130.859 460.908 130.899 460.822 130.92C460.737 130.941 460.646 130.942 460.56 130.923Z" fill="#263238"/>
<path d="M509.767 174.981L496.164 171.995C496.164 171.995 482.822 199.063 478.1 200.821C471.691 203.235 455.459 211.601 448.553 215.557C448.173 216.904 448.474 220.473 449.337 221.454C461.109 219.686 483.646 212.538 488.355 208.906C499.094 200.616 509.767 174.981 509.767 174.981Z" fill="#E58A7B"/>
<path d="M500.271 441.872C499.607 441.916 498.946 441.767 498.4 441.452C498.232 441.326 498.106 441.167 498.035 440.989C497.964 440.812 497.95 440.622 497.995 440.439C498.003 440.324 498.049 440.213 498.127 440.119C498.205 440.024 498.313 439.948 498.44 439.9C499.538 439.436 502.612 441.042 502.965 441.225C503.004 441.245 503.034 441.275 503.051 441.31C503.067 441.345 503.069 441.383 503.057 441.42C503.046 441.457 503.023 441.492 502.991 441.52C502.959 441.548 502.919 441.569 502.874 441.581C502.021 441.754 501.149 441.851 500.271 441.872ZM498.963 440.191C498.864 440.172 498.761 440.172 498.662 440.191C498.612 440.212 498.57 440.244 498.542 440.284C498.515 440.325 498.502 440.371 498.505 440.417C498.47 440.542 498.476 440.673 498.522 440.796C498.568 440.919 498.652 441.03 498.767 441.118C499.277 441.495 500.559 441.538 502.246 441.269C501.241 440.723 500.11 440.356 498.924 440.191H498.963Z" fill="#7A96D4"/>
<path d="M502.808 441.581C502.774 441.59 502.738 441.59 502.704 441.581C501.723 441.128 499.878 439.35 500.153 438.444C500.194 438.301 500.293 438.173 500.433 438.081C500.573 437.989 500.746 437.938 500.925 437.938C501.1 437.918 501.279 437.93 501.448 437.973C501.618 438.016 501.774 438.088 501.906 438.185C502.991 438.951 503.057 441.301 503.057 441.419C503.063 441.455 503.055 441.491 503.034 441.522C503.012 441.553 502.979 441.578 502.939 441.592C502.895 441.599 502.85 441.596 502.808 441.581ZM501.056 438.293H500.964C500.663 438.293 500.624 438.433 500.611 438.487C500.454 439.016 501.618 440.363 502.586 440.999C502.582 440.088 502.239 439.201 501.605 438.455C501.453 438.346 501.257 438.288 501.056 438.293Z" fill="#7A96D4"/>
<path d="M465.543 440.525C464.743 440.755 463.872 440.755 463.071 440.525C462.889 440.444 462.735 440.326 462.623 440.183C462.511 440.04 462.445 439.875 462.43 439.706C462.414 439.599 462.43 439.491 462.478 439.391C462.526 439.291 462.604 439.202 462.705 439.134C463.751 438.358 468.029 439.134 468.513 439.285C468.559 439.295 468.599 439.317 468.628 439.349C468.656 439.38 468.671 439.418 468.67 439.458C468.671 439.498 468.659 439.538 468.633 439.573C468.608 439.607 468.57 439.635 468.526 439.652C467.563 440.01 466.565 440.302 465.543 440.525ZM463.411 439.242C463.262 439.267 463.122 439.322 463.006 439.404C462.964 439.429 462.932 439.464 462.914 439.504C462.895 439.544 462.891 439.588 462.901 439.63C462.91 439.743 462.953 439.853 463.026 439.949C463.099 440.045 463.2 440.124 463.32 440.18C464.013 440.482 465.622 440.245 467.702 439.522C466.301 439.231 464.85 439.136 463.411 439.242Z" fill="#7A96D4"/>
<path d="M468.486 439.652H468.382C467.074 439.458 464.458 438.218 464.379 437.291C464.379 437.075 464.497 436.773 465.125 436.601C465.337 436.539 465.562 436.512 465.787 436.523C466.012 436.534 466.231 436.583 466.433 436.666C467.846 437.237 468.591 439.307 468.63 439.404C468.64 439.436 468.638 439.47 468.627 439.502C468.615 439.534 468.594 439.564 468.565 439.587C468.545 439.613 468.518 439.635 468.486 439.652ZM465.386 436.924H465.256C464.85 437.043 464.85 437.183 464.85 437.226C464.85 437.787 466.747 438.811 468.068 439.156C467.764 438.29 467.12 437.532 466.237 437C465.974 436.89 465.672 436.863 465.386 436.924Z" fill="#7A96D4"/>
<path d="M449.664 214.921L436.022 220.095L434.439 223.329L439.475 226.121C439.475 226.121 448.893 225.28 451.574 220.289L449.664 214.921Z" fill="#E58A7B"/>
<path d="M450.24 221.637C449.935 219.477 449.07 217.396 447.702 215.535L449.86 214.199C451.484 216.342 452.52 218.752 452.895 221.26L450.24 221.637Z" fill="#263238"/>
<path d="M452.568 216.452C452.856 216.825 452.998 217.263 452.974 217.706C452.95 218.149 452.76 218.574 452.432 218.925C452.104 219.276 451.652 219.535 451.139 219.667C450.626 219.799 450.076 219.797 449.564 219.662C449.052 219.527 448.603 219.266 448.278 218.913C447.952 218.56 447.767 218.133 447.746 217.691C447.726 217.248 447.871 216.811 448.163 216.439C448.455 216.066 448.878 215.777 449.377 215.611C449.936 215.376 450.585 215.333 451.182 215.49C451.78 215.648 452.278 215.993 452.568 216.452Z" fill="#263238"/>
<path d="M426.8 224.278L428.619 225.787L440.861 221.475L436.022 220.095L426.8 224.278Z" fill="#E58A7B"/>
<path opacity="0.2" d="M479.369 421.315C479.447 421.315 481.226 425.433 481.226 425.433L463.124 431.707L460.272 427.33L479.369 421.315Z" fill="black"/>
<path opacity="0.2" d="M516.372 426.543C516.451 426.543 516.974 430.693 516.974 430.693H497.145L495.732 425.929L516.372 426.543Z" fill="black"/>
<path d="M513.312 171.876C516.909 181.438 502.848 194.514 502.848 194.514L483.424 187.982C485.726 182.455 488.381 177.032 491.376 171.736C497.341 161.139 509.675 162.228 513.312 171.876Z" fill="#7A96D4"/>
<path opacity="0.2" d="M513.312 171.876C516.909 181.438 502.848 194.514 502.848 194.514L483.424 187.982C485.726 182.455 488.381 177.032 491.376 171.736C497.341 161.139 509.675 162.228 513.312 171.876Z" fill="black"/>
<path d="M320.303 76.0745H311.945V77.1848H320.303V76.0745Z" fill="#7A96D4"/>
<path d="M428.498 120.021L427.487 138.522L428.833 138.572L429.844 120.071L428.498 120.021Z" fill="#7A96D4"/>
<path d="M425.898 81.0549H271.554L257.192 345.941H411.536L425.898 81.0549Z" fill="#7A96D4"/>
<path opacity="0.56" d="M421.294 84.6985H266.95L252.588 349.585H406.932L421.294 84.6985Z" fill="#FAFAFA"/>
<path opacity="0.07" d="M416.69 88.3314H262.346L247.971 353.218H402.315L416.69 88.3314Z" fill="#7A96D4"/>
<path d="M399.123 203.861H267.381L266.283 224.127H398.024L399.123 203.861Z" fill="white"/>
<path d="M339.832 189.07H268.179L267.695 198.136H339.348L339.832 189.07Z" fill="#7A96D4"/>
<path d="M396.154 258.558H264.412L263.314 278.825H395.055L396.154 258.558Z" fill="white"/>
<path opacity="0.47" d="M371.995 306.195H283.404L282.083 330.483H370.674L371.995 306.195Z" fill="#7A96D4"/>
<path d="M366.07 334.256H277.479C277.441 334.264 277.4 334.264 277.361 334.256C277.349 334.224 277.349 334.19 277.361 334.159L278.669 309.86C278.669 309.844 278.673 309.827 278.682 309.812C278.69 309.797 278.701 309.784 278.716 309.772C278.731 309.761 278.748 309.753 278.767 309.748C278.786 309.742 278.806 309.74 278.826 309.742H367.417C367.434 309.735 367.451 309.732 367.47 309.732C367.488 309.732 367.506 309.735 367.522 309.742C367.531 309.755 367.536 309.77 367.536 309.785C367.536 309.8 367.531 309.815 367.522 309.828L366.24 334.18C366.224 334.205 366.2 334.226 366.169 334.24C366.139 334.253 366.104 334.259 366.07 334.256ZM277.636 333.997H365.913L367.221 309.957H278.944L277.636 333.997Z" fill="white"/>
<path d="M324.358 243.768H265.21L264.726 252.845H323.861L324.358 243.768Z" fill="#7A96D4"/>
<path d="M370.308 138.394C369.97 144.292 367.425 149.959 363.022 154.618C359.763 158.136 355.57 160.993 350.763 162.968C345.956 164.943 340.664 165.985 335.293 166.012C330.952 166.039 326.651 165.334 322.654 163.939C318.657 162.545 315.049 160.491 312.052 157.903C309.054 155.316 306.731 152.25 305.226 148.895C303.721 145.539 303.065 141.966 303.299 138.394C303.759 130.981 307.638 123.994 314.141 118.86C320.645 113.726 329.283 110.834 338.288 110.775C342.632 110.742 346.938 111.443 350.939 112.835C354.941 114.227 358.554 116.281 361.555 118.869C364.556 121.458 366.881 124.526 368.387 127.884C369.892 131.242 370.546 134.819 370.308 138.394Z" fill="white"/>
<path d="M373.46 116.553C373.375 118.122 372.698 119.629 371.524 120.865C370.656 121.8 369.54 122.559 368.261 123.084C366.983 123.609 365.576 123.886 364.147 123.895C362.763 123.901 361.398 123.629 360.172 123.101C358.945 122.573 357.894 121.805 357.11 120.865C356.072 119.595 355.559 118.083 355.645 116.553C355.772 114.585 356.804 112.731 358.532 111.369C360.26 110.007 362.554 109.239 364.945 109.223C366.099 109.214 367.242 109.4 368.305 109.77C369.368 110.139 370.328 110.684 371.126 111.371C371.924 112.058 372.542 112.872 372.944 113.763C373.345 114.654 373.521 115.604 373.46 116.553Z" fill="#7A96D4"/>
<path d="M281.573 213.994C281.51 214.863 281.05 215.679 280.286 216.279C279.521 216.88 278.509 217.218 277.453 217.228C276.943 217.233 276.438 217.152 275.967 216.989C275.497 216.827 275.072 216.587 274.719 216.283C274.366 215.98 274.092 215.621 273.915 215.227C273.737 214.833 273.659 214.413 273.686 213.994C273.743 213.123 274.201 212.304 274.967 211.702C275.733 211.101 276.748 210.764 277.806 210.76C278.315 210.756 278.82 210.839 279.289 211.002C279.759 211.165 280.183 211.405 280.535 211.708C280.888 212.01 281.162 212.369 281.341 212.763C281.519 213.156 281.598 213.575 281.573 213.994Z" fill="#263238"/>
<path d="M299.205 213.994C299.145 214.863 298.686 215.682 297.921 216.282C297.156 216.883 296.142 217.221 295.085 217.228C294.576 217.231 294.072 217.149 293.603 216.986C293.135 216.823 292.712 216.582 292.36 216.279C292.008 215.976 291.736 215.617 291.559 215.224C291.382 214.831 291.304 214.413 291.331 213.994C291.388 213.125 291.844 212.307 292.607 211.706C293.37 211.105 294.383 210.767 295.438 210.76C295.948 210.755 296.454 210.836 296.924 210.999C297.394 211.161 297.819 211.401 298.172 211.704C298.525 212.007 298.799 212.367 298.976 212.761C299.154 213.155 299.232 213.574 299.205 213.994Z" fill="#263238"/>
<path d="M316.85 213.994C316.79 214.863 316.331 215.682 315.566 216.282C314.801 216.883 313.787 217.221 312.73 217.228C312.221 217.231 311.716 217.149 311.246 216.986C310.777 216.823 310.353 216.583 310.001 216.28C309.648 215.977 309.374 215.618 309.195 215.225C309.017 214.832 308.938 214.413 308.963 213.994C309.023 213.124 309.482 212.306 310.247 211.705C311.012 211.105 312.026 210.767 313.083 210.76C313.593 210.755 314.098 210.836 314.569 210.999C315.039 211.161 315.463 211.401 315.817 211.704C316.17 212.007 316.443 212.367 316.621 212.761C316.799 213.155 316.877 213.574 316.85 213.994Z" fill="#263238"/>
<path d="M278.604 268.692C278.541 269.56 278.081 270.377 277.317 270.977C276.552 271.577 275.54 271.916 274.484 271.926C273.975 271.929 273.47 271.847 273.001 271.684C272.531 271.521 272.107 271.28 271.755 270.978C271.402 270.675 271.128 270.316 270.949 269.923C270.771 269.53 270.692 269.111 270.717 268.692C270.777 267.822 271.236 267.004 272.001 266.403C272.766 265.802 273.78 265.464 274.837 265.458C275.346 265.454 275.851 265.536 276.32 265.699C276.79 265.862 277.214 266.103 277.566 266.405C277.919 266.708 278.193 267.067 278.371 267.46C278.55 267.853 278.629 268.272 278.604 268.692Z" fill="#263238"/>
<path d="M296.236 268.692C296.176 269.559 295.719 270.376 294.956 270.976C294.194 271.577 293.183 271.916 292.129 271.926C291.619 271.931 291.113 271.849 290.643 271.687C290.173 271.524 289.748 271.284 289.395 270.981C289.042 270.678 288.768 270.318 288.59 269.925C288.413 269.531 288.335 269.111 288.362 268.692C288.422 267.822 288.881 267.004 289.646 266.403C290.411 265.802 291.425 265.464 292.482 265.458C292.991 265.454 293.495 265.536 293.963 265.699C294.432 265.863 294.855 266.103 295.207 266.406C295.559 266.709 295.831 267.068 296.008 267.461C296.185 267.854 296.263 268.273 296.236 268.692Z" fill="#263238"/>
<path d="M313.92 268.692C313.86 269.561 313.401 270.379 312.636 270.98C311.871 271.581 310.857 271.919 309.8 271.926C309.291 271.927 308.787 271.844 308.319 271.681C307.85 271.517 307.427 271.277 307.075 270.974C306.723 270.672 306.449 270.314 306.269 269.921C306.09 269.529 306.01 269.11 306.033 268.692C306.096 267.823 306.556 267.006 307.32 266.406C308.085 265.806 309.097 265.467 310.153 265.458C310.663 265.453 311.168 265.534 311.639 265.696C312.109 265.859 312.534 266.099 312.887 266.402C313.24 266.705 313.514 267.065 313.691 267.458C313.869 267.852 313.947 268.272 313.92 268.692Z" fill="#263238"/>
<path d="M331.526 268.692C331.463 269.56 331.003 270.377 330.238 270.977C329.474 271.577 328.461 271.916 327.406 271.926C326.897 271.927 326.393 271.844 325.925 271.681C325.456 271.517 325.033 271.277 324.681 270.974C324.328 270.672 324.054 270.314 323.875 269.921C323.696 269.529 323.615 269.11 323.639 268.692C323.701 267.823 324.161 267.006 324.926 266.406C325.691 265.806 326.703 265.467 327.759 265.458C328.268 265.454 328.773 265.536 329.242 265.699C329.711 265.862 330.135 266.103 330.488 266.405C330.841 266.708 331.115 267.067 331.293 267.46C331.472 267.853 331.551 268.272 331.526 268.692Z" fill="#263238"/>
<path d="M349.236 268.692C349.173 269.56 348.713 270.377 347.949 270.977C347.184 271.577 346.172 271.916 345.116 271.926C344.606 271.931 344.1 271.849 343.63 271.687C343.16 271.524 342.735 271.284 342.382 270.981C342.029 270.678 341.755 270.318 341.578 269.925C341.4 269.531 341.322 269.111 341.349 268.692C341.409 267.822 341.868 267.004 342.633 266.403C343.398 265.802 344.412 265.464 345.469 265.458C345.978 265.454 346.483 265.536 346.952 265.699C347.422 265.862 347.846 266.103 348.198 266.405C348.551 266.708 348.825 267.067 349.003 267.46C349.182 267.853 349.261 268.272 349.236 268.692Z" fill="#263238"/>
<path d="M346.559 136.955C352.034 132.543 352.324 125.471 347.208 121.159C342.092 116.847 333.506 116.928 328.031 121.34C322.557 125.753 322.266 132.825 327.382 137.137C332.499 141.449 341.084 141.368 346.559 136.955Z" fill="#7A96D4"/>
<path d="M363.022 154.618C359.763 158.136 355.57 160.993 350.763 162.968C345.956 164.943 340.664 165.985 335.293 166.012C330.084 166.048 324.945 165.028 320.328 163.041C315.711 161.054 311.759 158.161 308.819 154.618C315.176 149.4 325.234 145.994 336.378 145.994C347.523 145.994 357.228 149.4 363.022 154.618Z" fill="#7A96D4"/>
<path opacity="0.1" d="M346.559 136.955C352.034 132.543 352.324 125.471 347.208 121.159C342.092 116.847 333.506 116.928 328.031 121.34C322.557 125.753 322.266 132.825 327.382 137.137C332.499 141.449 341.084 141.368 346.559 136.955Z" fill="white"/>
<path opacity="0.1" d="M363.022 154.618C359.763 158.136 355.57 160.993 350.763 162.968C345.956 164.943 340.664 165.985 335.293 166.012C330.084 166.048 324.945 165.028 320.328 163.041C315.711 161.054 311.759 158.161 308.819 154.618C315.176 149.4 325.234 145.994 336.378 145.994C347.523 145.994 357.228 149.4 363.022 154.618Z" fill="white"/>
<path d="M170.576 229.01C169.334 231.253 168.026 233.721 166.888 236.114C165.75 238.508 164.586 240.976 163.579 243.434C161.522 248.278 159.956 253.254 158.896 258.31L158.608 259.895C158.581 260.167 158.612 260.441 158.7 260.704C159.008 261.597 159.495 262.442 160.139 263.205C161.818 265.178 163.767 266.987 165.946 268.595C168.244 270.356 170.654 272.015 173.166 273.564C175.678 275.16 178.32 276.712 180.923 278.178L178.477 281.962C172.261 279.73 166.362 276.943 160.884 273.65C157.962 271.894 155.324 269.836 153.036 267.527C151.68 266.153 150.622 264.596 149.91 262.924C149.496 261.88 149.284 260.789 149.282 259.69C149.282 259.432 149.282 259.054 149.282 258.871V258.343L149.413 257.265C150.163 251.648 151.596 246.108 153.69 240.728C154.71 238.076 155.796 235.435 157.039 232.859C158.281 230.282 159.563 227.76 161.146 225.14L170.576 229.01Z" fill="#E58A7B"/>
<path d="M179.078 277.51L188.326 273.65L185.932 282.016C185.932 282.016 179.588 283.482 176.645 280.938L179.078 277.51Z" fill="#E58A7B"/>
<path d="M196.789 275.019L194.33 281.94L185.932 282.016L188.326 273.65L196.789 275.019Z" fill="#E58A7B"/>
<path d="M209.842 188.65C210.337 190.144 211.026 191.59 211.896 192.962C211.642 193.2 211.314 193.376 210.948 193.473C210.582 193.57 210.191 193.583 209.816 193.512L209.842 188.65Z" fill="#DF5753"/>
<path d="M209.568 188.715C210.11 188.715 210.549 188.16 210.549 187.475C210.549 186.79 210.11 186.235 209.568 186.235C209.026 186.235 208.587 186.79 208.587 187.475C208.587 188.16 209.026 188.715 209.568 188.715Z" fill="#263238"/>
<path d="M209.28 186.278L211.268 185.815C211.268 185.815 210.3 187.087 209.28 186.278Z" fill="#263238"/>
<path d="M184.297 196.563C185.488 201.575 186.678 210.771 182.414 214.123C182.414 214.123 184.088 219.211 195.402 219.211C207.841 219.211 201.341 214.123 201.341 214.123C194.552 212.786 194.722 208.636 195.912 204.734L184.297 196.563Z" fill="#E58A7B"/>
<path d="M180.988 185.136C181.616 193.512 181.668 197.069 186.796 201.37C194.526 207.838 206.873 205.381 209.293 197.058C211.478 189.512 210.091 177.094 200.137 173.763C197.952 173.021 195.574 172.751 193.227 172.978C190.88 173.205 188.642 173.922 186.725 175.06C184.808 176.199 183.275 177.722 182.271 179.485C181.267 181.248 180.825 183.193 180.988 185.136Z" fill="#E58A7B"/>
<path d="M181.995 175.714C176.894 177.245 170.092 176.102 172.761 189.07C175.586 202.804 171.243 207.321 171.243 207.321C171.243 207.321 190.589 210.717 210.34 207.116C210.34 207.116 204.31 198.427 205.997 192.024C208.155 183.939 206.455 180.953 206.455 180.953C206.455 180.953 189.163 173.558 181.995 175.714Z" fill="#263238"/>
<path d="M203.577 189.502C203.583 191.094 204.136 192.653 205.173 193.997C206.559 195.743 208.194 195.075 208.6 193.221C208.966 191.593 208.691 188.715 206.926 187.594C205.16 186.472 203.603 187.572 203.577 189.502Z" fill="#E58A7B"/>
<path d="M177.561 177.126C176.096 173.73 183.081 168.502 197.861 170.658C212.642 172.814 213.283 182.958 213.283 182.958L210.3 180.026L210.431 183.109L195.245 185.513L177.561 177.126Z" fill="#263238"/>
<path d="M178.817 214.695C178.729 214.202 178.879 213.701 179.233 213.299C179.587 212.896 180.119 212.623 180.713 212.539C185.317 211.913 195.781 210.641 201.04 211.245C204.964 211.698 205.984 213.573 206.154 215.115C206.181 215.385 206.137 215.656 206.025 215.911C205.914 216.166 205.738 216.398 205.509 216.592C205.28 216.786 205.003 216.938 204.696 217.036C204.39 217.135 204.062 217.178 203.734 217.163L181.001 216.322C180.465 216.3 179.955 216.126 179.557 215.829C179.159 215.533 178.897 215.132 178.817 214.695Z" fill="#7A96D4"/>
<path opacity="0.6" d="M178.817 214.695C178.729 214.202 178.879 213.701 179.233 213.299C179.587 212.896 180.119 212.623 180.713 212.539C185.317 211.913 195.781 210.641 201.04 211.245C204.964 211.698 205.984 213.573 206.154 215.115C206.181 215.385 206.137 215.656 206.025 215.911C205.914 216.166 205.738 216.398 205.509 216.592C205.28 216.786 205.003 216.938 204.696 217.036C204.39 217.135 204.062 217.178 203.734 217.163L181.001 216.322C180.465 216.3 179.955 216.126 179.557 215.829C179.159 215.533 178.897 215.132 178.817 214.695Z" fill="black"/>
<path d="M191.962 403.021L200.399 407.851L214.512 392.079L206.075 387.261L191.962 403.021Z" fill="#E58A7B"/>
<path d="M172.29 402.709L181.197 406.891L193.689 390.214L184.781 386.032L172.29 402.709Z" fill="#E58A7B"/>
<path d="M214.499 392.079L207.226 400.208L198.79 395.389L206.062 387.261L214.499 392.079Z" fill="#CF6F64"/>
<path d="M184.768 386.032L193.689 390.225L187.253 398.817L178.333 394.624L184.768 386.032Z" fill="#CF6F64"/>
<path d="M199.078 267.344C199.078 267.344 232.013 301.549 225.826 334.266C220.843 360.688 191.936 396.467 191.936 396.467L178.346 390.904C187.925 375.085 196.1 358.714 202.805 341.92C204.873 336.706 205.477 331.173 204.571 325.739C203.664 320.305 201.272 315.111 197.573 310.55C180.883 290.467 154.148 302.422 172.133 267.344H199.078Z" fill="#7A96D4"/>
<path opacity="0.6" d="M199.078 267.344C199.078 267.344 232.013 301.549 225.826 334.266C220.843 360.688 191.936 396.467 191.936 396.467L178.346 390.904C187.925 375.085 196.1 358.714 202.805 341.92C204.873 336.706 205.477 331.173 204.571 325.739C203.664 320.305 201.272 315.111 197.573 310.55C180.883 290.467 154.148 302.422 172.133 267.344H199.078Z" fill="black"/>
<path opacity="0.4" d="M215.231 289.314L210.444 285.39C210.444 285.702 219.718 332.886 222.321 346.146C223.857 342.272 225.033 338.308 225.839 334.288C228.9 318.236 222.504 301.84 215.231 289.314Z" fill="black"/>
<path d="M213.78 267.344C213.78 267.344 253.438 310.335 254.563 336.11C255.492 357.67 211.399 399.442 211.399 399.442L198.581 392.608C198.581 392.608 224.387 362.941 230.888 338.708C228.377 314.69 175.272 267.344 175.272 267.344H213.78Z" fill="#7A96D4"/>
<path opacity="0.6" d="M213.78 267.344C213.78 267.344 253.438 310.335 254.563 336.11C255.492 357.67 211.399 399.442 211.399 399.442L198.581 392.608C198.581 392.608 224.387 362.941 230.888 338.708C228.377 314.69 175.272 267.344 175.272 267.344H213.78Z" fill="black"/>
<path d="M164.717 216.042C160.479 216.872 156.411 229.571 156.411 229.571L172.983 238.691C172.983 238.691 178.503 228.644 176.567 224.246C174.566 219.664 170.04 214.996 164.717 216.042Z" fill="#7A96D4"/>
<path opacity="0.2" d="M167.96 224.224L166.809 235.295L172.97 238.702C174.671 235.545 175.93 232.24 176.724 228.849L167.96 224.224Z" fill="black"/>
<path d="M218.685 216.29C218.685 216.29 223.576 217.702 213.78 267.333H172.107C172.813 253.319 172.826 244.695 164.716 216.042C170.552 215.051 176.466 214.41 182.414 214.123C188.715 213.751 195.04 213.751 201.34 214.123C209.476 214.738 218.685 216.29 218.685 216.29Z" fill="#7A96D4"/>
<path d="M222.922 224.224C223.864 226.38 224.858 228.698 225.905 230.929C226.951 233.161 227.945 235.457 229.005 237.721L232.209 244.49L233.02 246.183L233.439 247.024L233.635 247.444C233.635 247.52 233.635 247.52 233.635 247.509C233.396 247.231 233.083 247.002 232.719 246.84C232.202 246.59 231.619 246.445 231.019 246.42C230.521 246.407 230.025 246.485 229.567 246.646C228.965 246.873 228.965 246.97 228.978 246.959C229.087 246.887 229.184 246.804 229.266 246.711C229.99 245.928 230.617 245.086 231.137 244.199C231.751 243.208 232.34 242.151 232.929 241.084C234.08 238.928 235.139 236.696 236.199 234.443C237.258 232.19 238.265 229.916 239.246 227.62L242.229 220.742L247.264 221.82C246.27 226.736 244.988 231.522 243.445 236.395C242.699 238.82 241.823 241.224 240.829 243.65C240.332 244.868 239.783 246.075 239.155 247.315C238.5 248.66 237.695 249.952 236.748 251.174C236.4 251.585 236.015 251.974 235.597 252.338C234.929 252.933 234.118 253.406 233.216 253.729C232.416 254.012 231.549 254.145 230.679 254.117C229.704 254.087 228.754 253.853 227.919 253.438C226.934 252.931 226.116 252.231 225.538 251.4C225.342 251.12 225.172 250.84 225.054 250.635L224.806 250.225L224.309 249.385L223.315 247.714C222.007 245.471 220.699 243.208 219.561 240.933C218.423 238.658 217.22 236.352 216.095 234.034C214.97 231.716 213.963 229.398 213.008 226.897L222.922 224.224Z" fill="#E58A7B"/>
<path d="M218.685 216.29C223.694 217.271 229.332 229.474 229.332 229.474L214.434 239.92C214.434 239.92 204.794 226.617 206.743 222.23C208.77 217.659 212.145 215.007 218.685 216.29Z" fill="#7A96D4"/>
<path d="M244.596 216.883L249.828 213.282L253.464 217.95L250.783 221.842C250.783 221.842 246.519 225.076 242.752 223.426C242.154 222.319 242.011 221.081 242.343 219.9C242.676 218.719 243.467 217.66 244.596 216.883Z" fill="#E58A7B"/>
<path d="M259.272 213.293L258.879 214.468L250.6 215.611L249.789 213.282L259.272 213.293Z" fill="#E58A7B"/>
<path d="M212.419 399.992L197.482 392.036L200.163 388.199L216.945 396.704L212.419 399.992Z" fill="#7A96D4"/>
<path d="M187.044 406.331C185.733 406.199 184.474 405.831 183.355 405.253C183.309 405.239 183.269 405.215 183.241 405.182C183.213 405.149 183.197 405.11 183.197 405.069C183.197 405.029 183.213 404.99 183.241 404.957C183.269 404.924 183.309 404.899 183.355 404.886C183.761 404.778 187.279 403.884 188.3 404.573C188.414 404.652 188.502 404.754 188.552 404.87C188.603 404.986 188.615 405.11 188.587 405.231C188.569 405.425 188.491 405.612 188.361 405.774C188.23 405.937 188.052 406.069 187.842 406.158C187.597 406.268 187.323 406.327 187.044 406.331ZM184.101 405.145C185.736 405.835 187.044 406.083 187.672 405.824C187.809 405.761 187.924 405.671 188.006 405.562C188.088 405.452 188.136 405.327 188.143 405.199C188.143 405.026 188.143 404.951 188.025 404.908C187.476 404.541 185.514 404.821 184.075 405.145H184.101Z" fill="#263238"/>
<path d="M183.447 405.328C183.378 405.327 183.312 405.304 183.264 405.263C183.244 405.234 183.234 405.2 183.234 405.166C183.234 405.132 183.244 405.099 183.264 405.069C183.264 404.972 184.114 402.633 185.448 402.105C185.619 402.041 185.804 402.008 185.991 402.008C186.178 402.008 186.364 402.041 186.534 402.105C186.718 402.153 186.877 402.25 186.986 402.381C187.095 402.511 187.147 402.669 187.136 402.827C187.044 403.797 184.65 405.134 183.552 405.36L183.447 405.328ZM185.985 402.385C185.857 402.388 185.732 402.414 185.618 402.461C184.807 402.784 184.14 404.045 183.813 404.811C184.964 404.412 186.547 403.355 186.599 402.762C186.599 402.665 186.599 402.547 186.298 402.439C186.201 402.396 186.094 402.366 185.985 402.353V402.385Z" fill="#263238"/>
<path d="M205.709 410.988C204.231 410.988 202.178 409.424 201.053 408.465C201.024 408.432 201.009 408.392 201.009 408.352C201.009 408.311 201.024 408.272 201.053 408.239C201.079 408.204 201.115 408.176 201.159 408.157C201.203 408.138 201.252 408.129 201.301 408.131C201.824 408.131 206.363 408.691 207.004 409.748C207.072 409.843 207.108 409.95 207.108 410.06C207.108 410.17 207.072 410.278 207.004 410.373C206.908 410.538 206.763 410.679 206.582 410.785C206.401 410.89 206.191 410.956 205.971 410.977L205.709 410.988ZM201.916 408.616C203.564 409.931 205.016 410.664 205.84 410.578C205.984 410.562 206.122 410.518 206.24 410.448C206.359 410.379 206.455 410.286 206.52 410.179C206.549 410.142 206.565 410.099 206.565 410.055C206.565 410.011 206.549 409.968 206.52 409.931C206.18 409.349 203.76 408.853 201.916 408.616Z" fill="#263238"/>
<path d="M202.06 408.562C201.766 408.569 201.473 408.551 201.184 408.508C201.143 408.503 201.105 408.49 201.073 408.469C201.041 408.448 201.016 408.421 201 408.39C200.981 408.358 200.971 408.323 200.971 408.287C200.971 408.252 200.981 408.216 201 408.185C201.079 408.109 202.845 406.352 204.519 406.234C204.993 406.203 205.462 406.327 205.827 406.579C206.337 406.945 206.311 407.268 206.18 407.473C205.853 408.206 203.59 408.562 202.06 408.562ZM201.72 408.163C203.185 408.228 205.526 407.829 205.827 407.301C205.827 407.301 205.932 407.128 205.592 406.891C205.456 406.794 205.298 406.721 205.127 406.677C204.956 406.632 204.776 406.617 204.597 406.632C203.47 406.892 202.465 407.43 201.72 408.174V408.163Z" fill="#263238"/>
<path d="M183.8 404.164L172.708 401.577C172.517 401.529 172.311 401.541 172.13 401.611C171.949 401.68 171.806 401.802 171.727 401.954L167.986 408.885C167.899 409.063 167.857 409.254 167.865 409.445C167.873 409.637 167.931 409.825 168.033 409.997C168.136 410.169 168.281 410.321 168.46 410.444C168.639 410.566 168.848 410.656 169.072 410.707C172.996 411.548 174.88 411.785 179.758 412.939C182.767 413.629 187.057 414.911 191.203 415.882C195.35 416.852 196.736 413.521 195.127 412.809C187.855 409.64 187.279 407.419 185.291 405.048C184.935 404.618 184.408 404.305 183.8 404.164Z" fill="#7A96D4"/>
<path d="M201.354 407.204L191.884 401.814C191.723 401.717 191.525 401.673 191.328 401.689C191.13 401.705 190.946 401.78 190.811 401.9L184.533 407.463C184.38 407.606 184.266 407.775 184.198 407.958C184.13 408.141 184.111 408.334 184.14 408.523C184.17 408.713 184.248 408.895 184.37 409.058C184.492 409.221 184.654 409.361 184.847 409.468C188.182 411.311 189.909 412.055 194.081 414.437C196.697 415.903 201.759 419.159 205.291 421.185C208.822 423.212 211.451 420.431 210.196 419.331C204.571 414.383 203.342 411.279 202.413 408.465C202.252 407.955 201.877 407.508 201.354 407.204Z" fill="#7A96D4"/>
<path d="M193.676 397.178L176.606 390.182L178.372 386.366L196.606 393.74L193.676 397.178Z" fill="#7A96D4"/>
<path d="M171.479 265.317L170.04 268.422C169.896 268.659 170.236 268.907 170.72 268.907H213.989C214.368 268.907 214.682 268.756 214.708 268.562L215.075 265.479C215.075 265.274 214.774 265.091 214.368 265.091H172.159C172.032 265.081 171.904 265.097 171.786 265.136C171.667 265.175 171.562 265.238 171.479 265.317Z" fill="#7A96D4"/>
<path opacity="0.4" d="M171.479 265.317L170.04 268.422C169.896 268.659 170.236 268.907 170.72 268.907H213.989C214.368 268.907 214.682 268.756 214.708 268.562L215.075 265.479C215.075 265.274 214.774 265.091 214.368 265.091H172.159C172.032 265.081 171.904 265.097 171.786 265.136C171.667 265.175 171.562 265.238 171.479 265.317Z" fill="white"/>
<path d="M178.294 269.209H177.156C176.933 269.209 176.763 269.112 176.776 268.993L177.313 264.994C177.313 264.886 177.522 264.789 177.744 264.789H178.882C179.105 264.789 179.275 264.886 179.261 264.994L178.725 268.993C178.712 269.112 178.516 269.209 178.294 269.209Z" fill="#7A96D4"/>
<path d="M204.977 269.209H203.852C203.63 269.209 203.459 269.112 203.473 268.993L203.996 264.994C203.996 264.886 204.218 264.789 204.44 264.789H205.565C205.788 264.789 205.971 264.886 205.945 264.994L205.421 268.993C205.356 269.112 205.212 269.209 204.977 269.209Z" fill="#7A96D4"/>
<g style="mix-blend-mode:multiply">
<path d="M177.299 451.768C196.652 451.768 212.341 450.832 212.341 449.677C212.341 448.522 196.652 447.586 177.299 447.586C157.947 447.586 142.258 448.522 142.258 449.677C142.258 450.832 157.947 451.768 177.299 451.768Z" fill="#F5F5F5"/>
</g>
<path d="M198.646 446.723C192.446 445.236 185.566 443.328 181.407 441.333C181.289 441.269 181.158 441.236 181.04 441.182V418.048H193.584C194.536 418.002 195.431 417.657 196.085 417.085C196.74 416.513 197.104 415.757 197.104 414.971C197.104 414.185 196.74 413.428 196.085 412.856C195.431 412.284 194.536 411.94 193.584 411.893H181.106V306.443H173.572V411.893H161.106C160.597 411.868 160.088 411.929 159.608 412.073C159.129 412.216 158.691 412.439 158.32 412.727C157.948 413.015 157.653 413.363 157.451 413.749C157.249 414.135 157.144 414.551 157.144 414.971C157.144 415.391 157.249 415.807 157.451 416.193C157.653 416.578 157.948 416.926 158.32 417.214C158.691 417.503 159.129 417.725 159.608 417.869C160.088 418.012 160.597 418.073 161.106 418.048H173.572V441.15C173.454 441.15 173.336 441.236 173.219 441.301C168.994 443.328 162.166 445.236 155.966 446.691C155.547 446.795 155.188 447.02 154.952 447.324C154.717 447.628 154.621 447.991 154.683 448.348C154.745 448.705 154.959 449.032 155.288 449.27C155.617 449.508 156.039 449.641 156.476 449.645H198.136C198.554 449.621 198.95 449.48 199.257 449.245C199.564 449.01 199.764 448.696 199.824 448.354C199.884 448.012 199.799 447.664 199.585 447.367C199.371 447.07 199.039 446.843 198.646 446.723Z" fill="#E0E0E0"/>
<path d="M200.569 295.706H154.056C150.314 295.706 147.281 298.206 147.281 301.29V312.685C147.281 315.769 150.314 318.269 154.056 318.269H200.569C204.311 318.269 207.344 315.769 207.344 312.685V301.29C207.344 298.206 204.311 295.706 200.569 295.706Z" fill="#7A96D4"/>
<path d="M153.625 318.28V320.241C153.625 321.858 155.757 323.174 158.373 323.174H196.305C198.921 323.174 201.053 321.858 201.053 320.241V318.28H153.625Z" fill="#7A96D4"/>
<path opacity="0.3" d="M153.625 318.28V320.241C153.625 321.858 155.757 323.174 158.373 323.174H196.305C198.921 323.174 201.053 321.858 201.053 320.241V318.28H153.625Z" fill="white"/>
</g>
<defs>
<clipPath id="clip0_25_3253">
<rect width="654" height="539" fill="white"/>
</clipPath>
</defs>
</svg>
