<svg width="49" height="50" viewBox="0 0 49 50" fill="none" xmlns="http://www.w3.org/2000/svg">
<path d="M24.3806 9.88794C14.231 9.88794 5.56323 16.201 2.05147 25.1123C5.56323 34.0237 14.231 40.3367 24.3806 40.3367C34.5302 40.3367 43.1979 34.0237 46.7097 25.1123C43.1979 16.201 34.5302 9.88794 24.3806 9.88794ZM24.3806 35.2619C18.778 35.2619 14.231 30.7149 14.231 25.1123C14.231 19.5098 18.778 14.9627 24.3806 14.9627C29.9831 14.9627 34.5302 19.5098 34.5302 25.1123C34.5302 30.7149 29.9831 35.2619 24.3806 35.2619ZM24.3806 19.0226C21.0109 19.0226 18.2908 21.7427 18.2908 25.1123C18.2908 28.482 21.0109 31.2021 24.3806 31.2021C27.7502 31.2021 30.4703 28.482 30.4703 25.1123C30.4703 21.7427 27.7502 19.0226 24.3806 19.0226Z" fill="black" fill-opacity="0.56"/>
</svg>
